<svg xmlns="http://www.w3.org/2000/svg" width="1280" height="720" viewBox="0 0 1280 720">
  <g id="bg"><rect width="1280" height="720" fill="#FFFFFF"/></g>
  <g id="bg-surface"><rect x="56" y="96" width="1168" height="608" rx="12" fill="#FFFFFF" fill-opacity="0.92" stroke="#E0E0E0"/></g>
  <g id="header"><rect x="88" y="132" width="6" height="40" fill="#AB1F29"/><text x="108" y="162" font-size="30" font-weight="bold" font-family="Arial Black, Microsoft YaHei, Arial, sans-serif" fill="#2B2B2B">当前瓶颈不是缺少工具，而是标准、数据和责任链断裂</text></g>
  <g id="layout-iceberg" data-layout="iceberg" font-family="'Microsoft YaHei', Arial, sans-serif">
  <line x1="100.0" y1="364.8" x2="1180.0" y2="364.8" stroke="#44546A" stroke-width="2"/>
  <text x="106.0" y="352.8" font-size="15" fill="#6E6E73">水面以上</text>
  <text x="106.0" y="392.8" font-size="15" fill="#6E6E73">水面以下</text>
  <polygon points="424.0,368.8 564.4,324.8 614.0,294.8 640.0,272.8 676.0,304.8 834.4,368.8 877.6,458.4 791.2,575.4 640.0,630.0 488.8,571.5 391.6,462.3" fill="#F6F6F7" stroke="#E0E0E0" stroke-width="1.5"/>
  <line x1="640.0" y1="278.8" x2="575.2" y2="344.8" stroke="#E0E0E0" stroke-width="1"/>
  <line x1="640.0" y1="278.8" x2="726.4" y2="350.8" stroke="#E0E0E0" stroke-width="1"/>
  <rect x="470.0" y="248.0" width="340.0" height="54" rx="18" fill="#AB1F29" stroke="#AB1F29" stroke-width="1"/>
  <text x="640.0" y="281.1" text-anchor="middle" font-size="18" font-weight="bold" fill="#FFFFFF">交付周期波动</text>
  <rect x="391.6" y="398.8" width="496.8" height="56.0" rx="16" fill="#FFFFFF" stroke="#AB1F29" stroke-width="1.5"/>
  <text x="640.0" y="432.6" text-anchor="middle" font-size="17" font-weight="bold" fill="#2B2B2B">标准不统一</text>
  <rect x="434.8" y="468.8" width="410.4" height="56.0" rx="16" fill="#F6F6F7" stroke="#E0E0E0" stroke-width="1.5"/>
  <text x="640.0" y="502.6" text-anchor="middle" font-size="17" font-weight="bold" fill="#2B2B2B">质量证据缺失</text>
  <rect x="478.0" y="538.8" width="324.0" height="56.0" rx="16" fill="#AB1F29" stroke="#E0E0E0" stroke-width="1.5"/>
  <text x="640.0" y="572.6" text-anchor="middle" font-size="17" font-weight="bold" fill="#FFFFFF">职责边界模糊</text>
</g>
  <g id="footer"><text x="1192" y="696" text-anchor="end" font-size="13" font-family="Microsoft YaHei, Arial, sans-serif" fill="#999999">04 / 30</text></g>
</svg>
