<svg xmlns="http://www.w3.org/2000/svg" width="1280" height="720" viewBox="0 0 1280 720">
  <g id="bg"><rect width="1280" height="720" fill="#FFFFFF"/></g>
  <g id="bg-surface">
    <rect x="56" y="96" width="1168" height="608" rx="12" fill="#FFFFFF" fill-opacity="0.92" stroke="#E0E0E0" stroke-width="1"/>
  </g>
  <g id="header">
    <rect x="88" y="132" width="6" height="40" fill="#AB1F29"/>
    <text x="108" y="162" font-size="30" font-weight="bold" fill="#2B2B2B" font-family="'Arial Black', 'Source Han Sans SC', 'Microsoft YaHei', Arial, sans-serif">Extended Layout Demo</text>
    <line x1="88" y1="190" x2="1192" y2="190" stroke="#E0E0E0" stroke-width="1"/>
    <text x="1192" y="162" text-anchor="end" font-size="14" fill="#AB1F29" font-family="'Source Han Sans SC', 'Microsoft YaHei', Arial, sans-serif">Demo 04</text>
  </g>
  <g id="content-lead">
    <text x="140" y="228" font-size="24" font-weight="bold" fill="#2B2B2B" font-family="'Source Han Sans SC', 'Microsoft YaHei', Arial, sans-serif">Issue Iceberg</text>
    <text x="140" y="255" font-size="18" fill="#6E6E73" font-family="'Source Han Sans SC', 'Microsoft YaHei', Arial, sans-serif">Separate visible symptoms from deeper structural constraints.</text>
  </g>
  <g id="layout-iceberg" data-layout="iceberg" font-family="'Source Han Sans SC', 'Microsoft YaHei', Arial, sans-serif">
  <line x1="140.0" y1="379.2" x2="1140.0" y2="379.2" stroke="#44546A" stroke-width="2"/>
  <text x="146.0" y="367.2" font-size="15" fill="#6E6E73">水面以上</text>
  <text x="146.0" y="407.2" font-size="15" fill="#6E6E73">水面以下</text>
  <polygon points="440.0,383.2 570.0,339.2 614.0,309.2 640.0,287.2 676.0,319.2 820.0,383.2 860.0,453.6 780.0,546.6 640.0,590.0 500.0,543.5 410.0,456.7" fill="#F6F6F7" stroke="#E0E0E0" stroke-width="1.5"/>
  <line x1="640.0" y1="293.2" x2="580.0" y2="359.2" stroke="#E0E0E0" stroke-width="1"/>
  <line x1="640.0" y1="293.2" x2="720.0" y2="365.2" stroke="#E0E0E0" stroke-width="1"/>
  <rect x="470.0" y="288.0" width="340.0" height="54" rx="18" fill="#AB1F29" stroke="#AB1F29" stroke-width="1"/>
  <text x="640.0" y="321.1" text-anchor="middle" font-size="18" font-weight="bold" fill="#FFFFFF">Visible Delay</text>
  <rect x="410.0" y="413.2" width="460.0" height="40.9" rx="16" fill="#FFFFFF" stroke="#AB1F29" stroke-width="1.5"/>
  <text x="640.0" y="439.4" text-anchor="middle" font-size="17" font-weight="bold" fill="#2B2B2B">Missed SLA</text>
  <rect x="450.0" y="468.1" width="380.0" height="40.9" rx="16" fill="#F6F6F7" stroke="#E0E0E0" stroke-width="1.5"/>
  <text x="640.0" y="494.4" text-anchor="middle" font-size="17" font-weight="bold" fill="#2B2B2B">Manual Routing</text>
  <rect x="490.0" y="523.1" width="300.0" height="40.9" rx="16" fill="#AB1F29" stroke="#E0E0E0" stroke-width="1.5"/>
  <text x="640.0" y="549.3" text-anchor="middle" font-size="17" font-weight="bold" fill="#FFFFFF">Legacy Rules</text>
</g>
  <g id="footer">
    <text x="1192" y="696" text-anchor="end" font-size="13" fill="#999999" font-family="'Source Han Sans SC', 'Microsoft YaHei', Arial, sans-serif">04 / 04</text>
  </g>
</svg>
